ffmpeg started on 2025-05-12 at 16:58:38
Report written to "D:\Convert\FFMetrics\reports\ssim_report-6.txt"
Log level: 32
Command line:
ffmpeg -hide_banner -nostdin -i "G:\\\xc0\xed\xe8\xec\xe5\\\xce\xed\xe3\xee\xe8\xed\xe3\xe8\\!_35_\xcb\xe5\xf2\xee_2024\\DreamCast\\\xce\xef\xe5\xf0\xe0\xf6\xe8\xff - \xd1\xe5\xec\xe5\xe9\xea\xe0 \xa8\xe4\xe7\xe0\xea\xf3\xf0\xe0\\[DC] Yozakura-san Chi no Daisakusen - 02_Telegram_HEVC.mkv" -i "G:\\\xc0\xed\xe8\xec\xe5\\\xce\xed\xe3\xee\xe8\xed\xe3\xe8\\!_35_\xcb\xe5\xf2\xee_2024\\DreamCast\\\xce\xef\xe5\xf0\xe0\xf6\xe8\xff - \xd1\xe5\xec\xe5\xe9\xea\xe0 \xa8\xe4\xe7\xe0\xea\xf3\xf0\xe0\\[DC] Yozakura-san Chi no Daisakusen - 02_Telegram.mp4" -lavfi "[0:v]settb=AVTB,setpts=PTS-STARTPTS,format=pix_fmts=yuv420p10,fps=24000/1001,scale=1920:1080:flags=bicubic[main];[1:v]settb=AVTB,setpts=PTS-STARTPTS,format=pix_fmts=yuv420p,fps=24000/1001,scale=1920:1080:flags=bicubic[ref];[main][ref]ssim=eof_action=endall:stats_file='D\\:/Convert/FFMetrics/logs/ssim_logfile-6.txt'" -f null -
Input #0, matroska,webm, from 'G:\Аниме\Онгоинги\!_35_Лето_2024\DreamCast\Операция - Семейка Ёдзакура\[DC] Yozakura-san Chi no Daisakusen - 02_Telegram_HEVC.mkv':
  Metadata:
    COMPATIBLE_BRANDS: isomiso2avc1mp41
    MAJOR_BRAND     : isom
    MINOR_VERSION   : 512
    ENCODER         : Lavf61.7.100
  Duration: 00:23:53.64, start: -0.021000, bitrate: 1381 kb/s
  Stream #0:0: Video: hevc (Main 10), yuv420p10le(tv, bt709, progressive), 1920x1080 [SAR 1:1 DAR 16:9], 23.98 fps, 23.98 tbr, 1k tbn (default)
      Metadata:
        HANDLER_NAME    : VideoHandler
        VENDOR_ID       : [0][0][0][0]
        ENCODER         : Lavc61.19.100 libx265
        BPS             : 1183715
        DURATION        : 00:23:53.556707114
        NUMBER_OF_FRAMES: 34372
        NUMBER_OF_BYTES : 212115281
        _STATISTICS_WRITING_APP: mkvpropedit v66.0.0 ('Josie') 64-bit
        _STATISTICS_WRITING_DATE_UTC: 2025-05-08 12:34:09
        _STATISTICS_TAGS: BPS DURATION NUMBER_OF_FRAMES NUMBER_OF_BYTES
  Stream #0:1: Audio: aac (LC), 48000 Hz, stereo, fltp (default)
      Metadata:
        HANDLER_NAME    : SoundHandler
        VENDOR_ID       : [0][0][0][0]
        ENCODER         : Lavc61.19.100 aac
        BPS             : 193655
        DURATION        : 00:23:53.642000000
        NUMBER_OF_FRAMES: 67203
        NUMBER_OF_BYTES : 34704170
        _STATISTICS_WRITING_APP: mkvpropedit v66.0.0 ('Josie') 64-bit
        _STATISTICS_WRITING_DATE_UTC: 2025-05-08 12:34:09
        _STATISTICS_TAGS: BPS DURATION NUMBER_OF_FRAMES NUMBER_OF_BYTES
Input #1, mov,mp4,m4a,3gp,3g2,mj2, from 'G:\Аниме\Онгоинги\!_35_Лето_2024\DreamCast\Операция - Семейка Ёдзакура\[DC] Yozakura-san Chi no Daisakusen - 02_Telegram.mp4':
  Metadata:
    major_brand     : isom
    minor_version   : 512
    compatible_brands: isomiso2avc1mp41
    encoder         : Lavf60.16.100
  Duration: 00:23:53.62, start: 0.000000, bitrate: 3661 kb/s
  Stream #1:0[0x1](und): Video: h264 (High) (avc1 / 0x31637661), yuv420p(tv, bt709, progressive), 1920x1080 [SAR 1:1 DAR 16:9], 3514 kb/s, 23.98 fps, 23.98 tbr, 28844 tbn (default)
      Metadata:
        handler_name    : VideoHandler
        vendor_id       : [0][0][0][0]
        encoder         : Lavc60.31.102 h264_qsv
  Stream #1:1[0x2](und): Audio: aac (HE-AACv2) (mp4a / 0x6134706D), 48000 Hz, stereo, fltp, 144 kb/s (default)
      Metadata:
        handler_name    : SoundHandler
        vendor_id       : [0][0][0][0]
Stream mapping:
  Stream #0:0 (hevc) -> settb:default
  Stream #1:0 (h264) -> settb:default
  ssim:default -> Stream #0:0 (wrapped_avframe)
  Stream #0:1 -> #0:1 (aac (native) -> pcm_s16le (native))
Output #0, null, to 'pipe:':
  Metadata:
    COMPATIBLE_BRANDS: isomiso2avc1mp41
    MAJOR_BRAND     : isom
    MINOR_VERSION   : 512
    encoder         : Lavf61.7.100
  Stream #0:0: Video: wrapped_avframe, yuv420p10le(tv, bt709, progressive), 1920x1080 [SAR 1:1 DAR 16:9], q=2-31, 200 kb/s, 23.98 fps, 23.98 tbn
      Metadata:
        encoder         : Lavc61.19.100 wrapped_avframe
  Stream #0:1: Audio: pcm_s16le, 48000 Hz, stereo, s16, 1536 kb/s (default)
      Metadata:
        HANDLER_NAME    : SoundHandler
        VENDOR_ID       : [0][0][0][0]
        _STATISTICS_TAGS: BPS DURATION NUMBER_OF_FRAMES NUMBER_OF_BYTES
        BPS             : 193655
        DURATION        : 00:23:53.642000000
        NUMBER_OF_FRAMES: 67203
        NUMBER_OF_BYTES : 34704170
        _STATISTICS_WRITING_APP: mkvpropedit v66.0.0 ('Josie') 64-bit
        _STATISTICS_WRITING_DATE_UTC: 2025-05-08 12:34:09
        encoder         : Lavc61.19.100 pcm_s16le
frame=  157 fps=0.0 q=-0.0 size=N/A time=00:00:06.54 bitrate=N/A speed=12.6x    frame=  409 fps=399 q=-0.0 size=N/A time=00:00:17.05 bitrate=N/A speed=16.6x    frame=  610 fps=393 q=-0.0 size=N/A time=00:00:25.44 bitrate=N/A speed=16.4x    frame=  841 fps=409 q=-0.0 size=N/A time=00:00:35.07 bitrate=N/A speed=17.1x    frame= 1092 fps=423 q=-0.0 size=N/A time=00:00:45.54 bitrate=N/A speed=17.7x    frame= 1363 fps=439 q=-0.0 size=N/A time=00:00:56.84 bitrate=N/A speed=18.3x    frame= 1591 fps=439 q=-0.0 size=N/A time=00:01:06.35 bitrate=N/A speed=18.3x    frame= 1778 fps=429 q=-0.0 size=N/A time=00:01:14.15 bitrate=N/A speed=17.9x    frame= 1994 fps=429 q=-0.0 size=N/A time=00:01:23.16 bitrate=N/A speed=17.9x    frame= 2199 fps=425 q=-0.0 size=N/A time=00:01:31.71 bitrate=N/A speed=17.7x    frame= 2375 fps=418 q=-0.0 size=N/A time=00:01:39.05 bitrate=N/A speed=17.4x    frame= 2542 fps=410 q=-0.0 size=N/A time=00:01:46.02 bitrate=N/A speed=17.1x    frame= 2707 fps=402 q=-0.0 size=N/A time=00:01:52.90 bitrate=N/A speed=16.8x    frame= 2864 fps=396 q=-0.0 size=N/A time=00:01:59.45 bitrate=N/A speed=16.5x    frame= 3032 fps=392 q=-0.0 size=N/A time=00:02:06.45 bitrate=N/A speed=16.3x    frame= 3230 fps=391 q=-0.0 size=N/A time=00:02:14.71 bitrate=N/A speed=16.3x    frame= 3408 fps=388 q=-0.0 size=N/A time=00:02:22.14 bitrate=N/A speed=16.2x    frame= 3596 fps=387 q=-0.0 size=N/A time=00:02:29.98 bitrate=N/A speed=16.1x    frame= 3841 fps=391 q=-0.0 size=N/A time=00:02:40.20 bitrate=N/A speed=16.3x    frame= 4091 fps=396 q=-0.0 size=N/A time=00:02:50.62 bitrate=N/A speed=16.5x    frame= 4346 fps=401 q=-0.0 size=N/A time=00:03:01.26 bitrate=N/A speed=16.7x    frame= 4599 fps=405 q=-0.0 size=N/A time=00:03:11.81 bitrate=N/A speed=16.9x    frame= 4862 fps=409 q=-0.0 size=N/A time=00:03:22.78 bitrate=N/A speed=17.1x    frame= 5139 fps=414 q=-0.0 size=N/A time=00:03:34.33 bitrate=N/A speed=17.3x    frame= 5397 fps=418 q=-0.0 size=N/A time=00:03:45.09 bitrate=N/A speed=17.4x    frame= 5628 fps=419 q=-0.0 size=N/A time=00:03:54.73 bitrate=N/A speed=17.5x    frame= 5866 fps=421 q=-0.0 size=N/A time=00:04:04.66 bitrate=N/A speed=17.5x    frame= 6073 fps=420 q=-0.0 size=N/A time=00:04:13.29 bitrate=N/A speed=17.5x    frame= 6281 fps=419 q=-0.0 size=N/A time=00:04:21.97 bitrate=N/A speed=17.5x    frame= 6522 fps=421 q=-0.0 size=N/A time=00:04:32.02 bitrate=N/A speed=17.5x    frame= 6763 fps=422 q=-0.0 size=N/A time=00:04:42.07 bitrate=N/A speed=17.6x    frame= 6992 fps=423 q=-0.0 size=N/A time=00:04:51.62 bitrate=N/A speed=17.6x    frame= 7211 fps=423 q=-0.0 size=N/A time=00:05:00.75 bitrate=N/A speed=17.6x    frame= 7471 fps=425 q=-0.0 size=N/A time=00:05:11.60 bitrate=N/A speed=17.7x    frame= 7741 fps=428 q=-0.0 size=N/A time=00:05:22.86 bitrate=N/A speed=17.9x    frame= 7992 fps=430 q=-0.0 size=N/A time=00:05:33.33 bitrate=N/A speed=17.9x    frame= 8230 fps=431 q=-0.0 size=N/A time=00:05:43.25 bitrate=N/A speed=  18x    frame= 8399 fps=428 q=-0.0 size=N/A time=00:05:50.30 bitrate=N/A speed=17.9x    frame= 8600 fps=427 q=-0.0 size=N/A time=00:05:58.69 bitrate=N/A speed=17.8x    frame= 8789 fps=425 q=-0.0 size=N/A time=00:06:06.57 bitrate=N/A speed=17.7x    frame= 8969 fps=424 q=-0.0 size=N/A time=00:06:14.08 bitrate=N/A speed=17.7x    frame= 9148 fps=422 q=-0.0 size=N/A time=00:06:21.54 bitrate=N/A speed=17.6x    frame= 9337 fps=421 q=-0.0 size=N/A time=00:06:29.43 bitrate=N/A speed=17.5x    frame= 9602 fps=423 q=-0.0 size=N/A time=00:06:40.48 bitrate=N/A speed=17.6x    frame= 9855 fps=424 q=-0.0 size=N/A time=00:06:51.03 bitrate=N/A speed=17.7x    frame=10098 fps=425 q=-0.0 size=N/A time=00:07:01.21 bitrate=N/A speed=17.7x    frame=10358 fps=427 q=-0.0 size=N/A time=00:07:12.01 bitrate=N/A speed=17.8x    frame=10613 fps=428 q=-0.0 size=N/A time=00:07:22.65 bitrate=N/A speed=17.9x    frame=10817 fps=427 q=-0.0 size=N/A time=00:07:31.15 bitrate=N/A speed=17.8x    frame=11016 fps=427 q=-0.0 size=N/A time=00:07:39.45 bitrate=N/A speed=17.8x    frame=11234 fps=427 q=-0.0 size=N/A time=00:07:48.55 bitrate=N/A speed=17.8x    frame=11448 fps=427 q=-0.0 size=N/A time=00:07:57.47 bitrate=N/A speed=17.8x    frame=11616 fps=425 q=-0.0 size=N/A time=00:08:04.48 bitrate=N/A speed=17.7x    frame=11796 fps=423 q=-0.0 size=N/A time=00:08:11.99 bitrate=N/A speed=17.7x    frame=12022 fps=423 q=-0.0 size=N/A time=00:08:21.41 bitrate=N/A speed=17.7x    frame=12231 fps=423 q=-0.0 size=N/A time=00:08:30.13 bitrate=N/A speed=17.6x    frame=12410 fps=422 q=-0.0 size=N/A time=00:08:37.60 bitrate=N/A speed=17.6x    frame=12620 fps=422 q=-0.0 size=N/A time=00:08:46.35 bitrate=N/A speed=17.6x    frame=12829 fps=421 q=-0.0 size=N/A time=00:08:55.07 bitrate=N/A speed=17.6x    frame=12999 fps=420 q=-0.0 size=N/A time=00:09:02.16 bitrate=N/A speed=17.5x    frame=13179 fps=419 q=-0.0 size=N/A time=00:09:09.67 bitrate=N/A speed=17.5x    frame=13348 fps=417 q=-0.0 size=N/A time=00:09:16.72 bitrate=N/A speed=17.4x    frame=13542 fps=417 q=-0.0 size=N/A time=00:09:24.81 bitrate=N/A speed=17.4x    frame=13771 fps=417 q=-0.0 size=N/A time=00:09:34.36 bitrate=N/A speed=17.4x    frame=14015 fps=418 q=-0.0 size=N/A time=00:09:44.54 bitrate=N/A speed=17.4x    frame=14266 fps=419 q=-0.0 size=N/A time=00:09:55.01 bitrate=N/A speed=17.5x    frame=14528 fps=420 q=-0.0 size=N/A time=00:10:05.93 bitrate=N/A speed=17.5x    frame=14776 fps=421 q=-0.0 size=N/A time=00:10:16.28 bitrate=N/A speed=17.6x    frame=15022 fps=422 q=-0.0 size=N/A time=00:10:26.54 bitrate=N/A speed=17.6x    frame=15283 fps=423 q=-0.0 size=N/A time=00:10:37.42 bitrate=N/A speed=17.6x    frame=15540 fps=424 q=-0.0 size=N/A time=00:10:48.14 bitrate=N/A speed=17.7x    frame=15766 fps=424 q=-0.0 size=N/A time=00:10:57.57 bitrate=N/A speed=17.7x    frame=15988 fps=424 q=-0.0 size=N/A time=00:11:06.83 bitrate=N/A speed=17.7x    frame=16250 fps=426 q=-0.0 size=N/A time=00:11:17.76 bitrate=N/A speed=17.7x    frame=16423 fps=424 q=-0.0 size=N/A time=00:11:24.97 bitrate=N/A speed=17.7x    frame=16698 fps=426 q=-0.0 size=N/A time=00:11:36.48 bitrate=N/A speed=17.8x    frame=16960 fps=427 q=-0.0 size=N/A time=00:11:47.37 bitrate=N/A speed=17.8x    frame=17230 fps=428 q=-0.0 size=N/A time=00:11:58.63 bitrate=N/A speed=17.8x    frame=17492 fps=429 q=-0.0 size=N/A time=00:12:09.56 bitrate=N/A speed=17.9x    frame=17713 fps=429 q=-0.0 size=N/A time=00:12:18.77 bitrate=N/A speed=17.9x    frame=17944 fps=429 q=-0.0 size=N/A time=00:12:28.41 bitrate=N/A speed=17.9x    frame=18152 fps=429 q=-0.0 size=N/A time=00:12:37.08 bitrate=N/A speed=17.9x    frame=18385 fps=429 q=-0.0 size=N/A time=00:12:46.80 bitrate=N/A speed=17.9x    frame=18598 fps=429 q=-0.0 size=N/A time=00:12:55.69 bitrate=N/A speed=17.9x    frame=18807 fps=429 q=-0.0 size=N/A time=00:13:04.40 bitrate=N/A speed=17.9x    frame=18992 fps=428 q=-0.0 size=N/A time=00:13:12.12 bitrate=N/A speed=17.8x    frame=19211 fps=428 q=-0.0 size=N/A time=00:13:21.25 bitrate=N/A speed=17.8x    frame=19460 fps=428 q=-0.0 size=N/A time=00:13:31.64 bitrate=N/A speed=17.9x    frame=19698 fps=429 q=-0.0 size=N/A time=00:13:41.57 bitrate=N/A speed=17.9x    frame=19921 fps=429 q=-0.0 size=N/A time=00:13:50.87 bitrate=N/A speed=17.9x    frame=20176 fps=430 q=-0.0 size=N/A time=00:14:01.50 bitrate=N/A speed=17.9x    frame=20439 fps=430 q=-0.0 size=N/A time=00:14:12.47 bitrate=N/A speed=  18x    frame=20697 fps=431 q=-0.0 size=N/A time=00:14:23.23 bitrate=N/A speed=  18x    frame=20965 fps=432 q=-0.0 size=N/A time=00:14:34.41 bitrate=N/A speed=  18x    frame=21205 fps=432 q=-0.0 size=N/A time=00:14:44.42 bitrate=N/A speed=  18x    frame=21453 fps=433 q=-0.0 size=N/A time=00:14:54.76 bitrate=N/A speed=18.1x    frame=21715 fps=434 q=-0.0 size=N/A time=00:15:05.69 bitrate=N/A speed=18.1x    frame=21972 fps=434 q=-0.0 size=N/A time=00:15:16.41 bitrate=N/A speed=18.1x    frame=22232 fps=435 q=-0.0 size=N/A time=00:15:27.25 bitrate=N/A speed=18.1x    frame=22492 fps=436 q=-0.0 size=N/A time=00:15:38.10 bitrate=N/A speed=18.2x    frame=22735 fps=436 q=-0.0 size=N/A time=00:15:48.23 bitrate=N/A speed=18.2x    frame=22965 fps=436 q=-0.0 size=N/A time=00:15:57.83 bitrate=N/A speed=18.2x    frame=23208 fps=437 q=-0.0 size=N/A time=00:16:07.96 bitrate=N/A speed=18.2x    frame=23456 fps=437 q=-0.0 size=N/A time=00:16:18.31 bitrate=N/A speed=18.2x    frame=23697 fps=437 q=-0.0 size=N/A time=00:16:28.36 bitrate=N/A speed=18.2x    frame=23956 fps=438 q=-0.0 size=N/A time=00:16:39.16 bitrate=N/A speed=18.3x    frame=24205 fps=438 q=-0.0 size=N/A time=00:16:49.55 bitrate=N/A speed=18.3x    frame=24486 fps=439 q=-0.0 size=N/A time=00:17:01.27 bitrate=N/A speed=18.3x    frame=24734 fps=440 q=-0.0 size=N/A time=00:17:11.61 bitrate=N/A speed=18.3x    frame=24979 fps=440 q=-0.0 size=N/A time=00:17:21.83 bitrate=N/A speed=18.3x    frame=25268 fps=441 q=-0.0 size=N/A time=00:17:33.88 bitrate=N/A speed=18.4x    frame=25512 fps=441 q=-0.0 size=N/A time=00:17:44.06 bitrate=N/A speed=18.4x    frame=25779 fps=442 q=-0.0 size=N/A time=00:17:55.19 bitrate=N/A speed=18.4x    frame=25995 fps=442 q=-0.0 size=N/A time=00:18:04.20 bitrate=N/A speed=18.4x    frame=26243 fps=442 q=-0.0 size=N/A time=00:18:14.55 bitrate=N/A speed=18.4x    frame=26491 fps=442 q=-0.0 size=N/A time=00:18:24.89 bitrate=N/A speed=18.5x    frame=26708 fps=442 q=-0.0 size=N/A time=00:18:33.94 bitrate=N/A speed=18.4x    frame=26933 fps=442 q=-0.0 size=N/A time=00:18:43.33 bitrate=N/A speed=18.4x    frame=27149 fps=442 q=-0.0 size=N/A time=00:18:52.33 bitrate=N/A speed=18.4x    frame=27379 fps=442 q=-0.0 size=N/A time=00:19:01.93 bitrate=N/A speed=18.4x    frame=27622 fps=442 q=-0.0 size=N/A time=00:19:12.06 bitrate=N/A speed=18.4x    frame=27878 fps=443 q=-0.0 size=N/A time=00:19:22.74 bitrate=N/A speed=18.5x    frame=28144 fps=443 q=-0.0 size=N/A time=00:19:33.83 bitrate=N/A speed=18.5x    frame=28407 fps=444 q=-0.0 size=N/A time=00:19:44.80 bitrate=N/A speed=18.5x    frame=28674 fps=444 q=-0.0 size=N/A time=00:19:55.94 bitrate=N/A speed=18.5x    frame=28928 fps=445 q=-0.0 size=N/A time=00:20:06.53 bitrate=N/A speed=18.6x    frame=29180 fps=445 q=-0.0 size=N/A time=00:20:17.04 bitrate=N/A speed=18.6x    frame=29411 fps=445 q=-0.0 size=N/A time=00:20:26.68 bitrate=N/A speed=18.6x    frame=29683 fps=446 q=-0.0 size=N/A time=00:20:38.02 bitrate=N/A speed=18.6x    frame=29922 fps=446 q=-0.0 size=N/A time=00:20:47.99 bitrate=N/A speed=18.6x    frame=30153 fps=446 q=-0.0 size=N/A time=00:20:57.63 bitrate=N/A speed=18.6x    frame=30421 fps=447 q=-0.0 size=N/A time=00:21:08.80 bitrate=N/A speed=18.6x    frame=30654 fps=447 q=-0.0 size=N/A time=00:21:18.52 bitrate=N/A speed=18.6x    frame=30842 fps=446 q=-0.0 size=N/A time=00:21:26.36 bitrate=N/A speed=18.6x    frame=31103 fps=446 q=-0.0 size=N/A time=00:21:37.25 bitrate=N/A speed=18.6x    frame=31329 fps=446 q=-0.0 size=N/A time=00:21:46.68 bitrate=N/A speed=18.6x    frame=31554 fps=446 q=-0.0 size=N/A time=00:21:56.06 bitrate=N/A speed=18.6x    frame=31803 fps=447 q=-0.0 size=N/A time=00:22:06.45 bitrate=N/A speed=18.6x    frame=31999 fps=446 q=-0.0 size=N/A time=00:22:14.62 bitrate=N/A speed=18.6x    frame=32248 fps=446 q=-0.0 size=N/A time=00:22:25.01 bitrate=N/A speed=18.6x    frame=32439 fps=446 q=-0.0 size=N/A time=00:22:32.97 bitrate=N/A speed=18.6x    frame=32617 fps=445 q=-0.0 size=N/A time=00:22:40.40 bitrate=N/A speed=18.6x    frame=32791 fps=444 q=-0.0 size=N/A time=00:22:47.65 bitrate=N/A speed=18.5x    frame=32982 fps=444 q=-0.0 size=N/A time=00:22:55.62 bitrate=N/A speed=18.5x    frame=33160 fps=443 q=-0.0 size=N/A time=00:23:03.04 bitrate=N/A speed=18.5x    frame=33348 fps=443 q=-0.0 size=N/A time=00:23:10.88 bitrate=N/A speed=18.5x    frame=33590 fps=443 q=-0.0 size=N/A time=00:23:20.98 bitrate=N/A speed=18.5x    frame=33824 fps=443 q=-0.0 size=N/A time=00:23:30.74 bitrate=N/A speed=18.5x    frame=34067 fps=443 q=-0.0 size=N/A time=00:23:40.87 bitrate=N/A speed=18.5x    frame=34330 fps=443 q=-0.0 size=N/A time=00:23:51.84 bitrate=N/A speed=18.5x    [Parsed_ssim_10 @ 000001d659700a40] SSIM Y:0.995154 (23.145824) U:0.994298 (22.439418) V:0.994289 (22.432550) All:0.994867 (22.896095)
[out#0/null @ 000001d64c2eeec0] video:14769KiB audio:268812KiB subtitle:0KiB other streams:0KiB global headers:0KiB muxing overhead: unknown
frame=34371 fps=444 q=-0.0 Lsize=N/A time=00:23:53.55 bitrate=N/A speed=18.5x    
